<svg width="14" height="14" viewBox="0 0 14 14" fill="none" xmlns="http://www.w3.org/2000/svg">
<path d="M6.3412 9.7475L2.1447 4.95075C1.64945 4.38638 2.05195 3.5 2.80357 3.5H11.1966C11.3648 3.49986 11.5295 3.5482 11.6709 3.63925C11.8124 3.73029 11.9246 3.86018 11.9941 4.01336C12.0636 4.16653 12.0875 4.3365 12.0629 4.50291C12.0383 4.66931 11.9663 4.8251 11.8554 4.95163L7.65895 9.74663C7.57682 9.84061 7.47553 9.91593 7.36189 9.96755C7.24825 10.0192 7.12488 10.0459 7.00007 10.0459C6.87526 10.0459 6.75189 10.0192 6.63825 9.96755C6.52461 9.91593 6.42332 9.84061 6.3412 9.74663V9.7475Z" fill="#333333"/>
</svg>
