<svg width="21" height="21" viewBox="0 0 21 21" fill="none" xmlns="http://www.w3.org/2000/svg">
<path d="M6.45059 7.6932C7.14659 9.14282 8.09537 10.5015 9.29695 11.703C10.4985 12.9046 11.8572 13.8534 13.3068 14.5494C13.4315 14.6093 13.4938 14.6392 13.5727 14.6622C13.8531 14.7439 14.1973 14.6852 14.4348 14.5152C14.5016 14.4674 14.5587 14.4102 14.673 14.2959C15.0226 13.9463 15.1975 13.7715 15.3732 13.6572C16.0361 13.2262 16.8907 13.2262 17.5536 13.6572C17.7294 13.7715 17.9042 13.9463 18.2538 14.2959L18.4486 14.4908C18.9801 15.0222 19.2458 15.2879 19.3902 15.5733C19.6772 16.1409 19.6772 16.8111 19.3902 17.3787C19.2458 17.6641 18.9801 17.9298 18.4486 18.4612L18.291 18.6189C17.7614 19.1485 17.4966 19.4133 17.1365 19.6156C16.737 19.84 16.1165 20.0013 15.6583 20C15.2454 19.9988 14.9632 19.9186 14.3987 19.7584C11.3653 18.8975 8.50295 17.273 6.11497 14.885C3.72699 12.497 2.10252 9.63467 1.24155 6.60128C1.08134 6.03683 1.00124 5.75461 1.00001 5.34166C0.998645 4.88344 1.16001 4.26295 1.38443 3.86344C1.58668 3.50341 1.85149 3.2386 2.38111 2.70898L2.53874 2.55134C3.07019 2.0199 3.33591 1.75418 3.62129 1.60983C4.18885 1.32276 4.85912 1.32276 5.42668 1.60983C5.71206 1.75418 5.97778 2.0199 6.50922 2.55134L6.70409 2.74621C7.0537 3.09582 7.2285 3.27062 7.34279 3.4464C7.77378 4.10929 7.77378 4.96387 7.34278 5.62676C7.2285 5.80254 7.0537 5.97734 6.70409 6.32695C6.58978 6.44126 6.53262 6.49842 6.48478 6.56523C6.31477 6.80266 6.25607 7.14692 6.33779 7.42727C6.36079 7.50616 6.39072 7.56851 6.45059 7.6932Z" stroke="black" stroke-width="2" stroke-linecap="round" stroke-linejoin="round"/>
</svg>
