<svg width="30" height="30" viewBox="0 0 30 30" fill="none" xmlns="http://www.w3.org/2000/svg">
<path fill-rule="evenodd" clip-rule="evenodd" d="M15 12.8125C13.1016 12.8125 11.5625 14.3515 11.5625 16.25C11.5625 17.8235 12.6197 19.15 14.0625 19.5581V23.75C14.0625 24.2678 14.4823 24.6875 15 24.6875C15.5178 24.6875 15.9375 24.2678 15.9375 23.75V19.5581C17.3804 19.15 18.4375 17.8235 18.4375 16.25C18.4375 14.3515 16.8985 12.8125 15 12.8125ZM13.4375 16.25C13.4375 15.3871 14.1371 14.6875 15 14.6875C15.863 14.6875 16.5625 15.3871 16.5625 16.25C16.5625 17.1129 15.863 17.8125 15 17.8125C14.1371 17.8125 13.4375 17.1129 13.4375 16.25Z" fill="#1E1E1E"/>
<path fill-rule="evenodd" clip-rule="evenodd" d="M15 1.5625C11.0305 1.5625 7.81254 4.78045 7.81254 8.75V9.40351L7.77898 9.41428C5.59083 10.1253 3.8753 11.8408 3.16432 14.0289C2.81198 15.1133 2.81218 16.4149 2.81252 18.5477V18.9523C2.81218 21.0851 2.81198 22.3867 3.16432 23.4711C3.87529 25.6592 5.59083 27.3747 7.77898 28.0857C8.86338 28.4381 10.1649 28.4379 12.2977 28.4375H17.7024C19.8352 28.4379 21.1367 28.4381 22.2211 28.0857C24.4092 27.3747 26.1248 25.6592 26.8358 23.4711C27.1881 22.3867 27.1879 21.0852 27.1876 18.9523V18.5477C27.1879 16.4148 27.1881 15.1133 26.8358 14.0289C26.1248 11.8408 24.4092 10.1253 22.2211 9.41428L22.1875 9.40351V8.75C22.1875 4.78045 18.9696 1.5625 15 1.5625ZM12.3951 9.0625C11.2961 9.06246 10.4189 9.06242 9.68754 9.10383V8.75C9.68754 5.81599 12.066 3.4375 15 3.4375C17.9341 3.4375 20.3125 5.81599 20.3125 8.75V9.10383C19.5812 9.06242 18.704 9.06246 17.605 9.0625H12.3951ZM8.90579 11.0666C9.65279 10.9408 10.6602 10.9375 12.5 10.9375H17.5C19.3399 10.9375 20.3473 10.9408 21.0943 11.0666C21.3009 11.1014 21.479 11.1446 21.6417 11.1975C23.259 11.723 24.527 12.991 25.0525 14.6083C25.301 15.373 25.3125 16.3504 25.3125 18.75C25.3125 21.1496 25.301 22.127 25.0525 22.8917C24.527 24.509 23.259 25.777 21.6417 26.3025C20.8771 26.5509 19.8996 26.5625 17.5 26.5625H12.5C10.1005 26.5625 9.12303 26.5509 8.35839 26.3025C6.74106 25.777 5.47306 24.509 4.94755 22.8917C4.69911 22.127 4.68754 21.1496 4.68754 18.75C4.68754 16.3504 4.69911 15.373 4.94755 14.6083C5.47305 12.991 6.74106 11.723 8.35839 11.1975C8.5211 11.1446 8.69923 11.1014 8.90579 11.0666Z" fill="#1E1E1E"/>
</svg>
