<svg width="24" height="25" viewBox="0 0 24 25" fill="none" xmlns="http://www.w3.org/2000/svg">
<path d="M10.528 6.96731C10.2338 6.67573 9.75889 6.67784 9.46731 6.97204C9.17573 7.26624 9.17784 7.74111 9.47204 8.03269L11.235 9.78C11.9505 10.4891 12.4413 10.9772 12.7734 11.3907C13.096 11.7924 13.2067 12.0504 13.2361 12.2815C13.2546 12.4266 13.2546 12.5734 13.2361 12.7185C13.2067 12.9496 13.096 13.2076 12.7734 13.6093C12.4413 14.0228 11.9505 14.5109 11.235 15.22L9.47204 16.9673C9.17784 17.2589 9.17573 17.7338 9.46731 18.028C9.75889 18.3222 10.2338 18.3243 10.528 18.0327L12.3227 16.2539C12.9987 15.584 13.5511 15.0364 13.9429 14.5485C14.3504 14.0412 14.6453 13.5263 14.7241 12.9082C14.7586 12.6371 14.7586 12.3629 14.7241 12.0918C14.6453 11.4737 14.3504 10.9588 13.9429 10.4515C13.5511 9.96359 12.9987 9.41604 12.3227 8.74609L10.528 6.96731Z" fill="#1E1E1E"/>
</svg>
